# xmcd
#
# Track frame offsets:
#        187
#        21560
#        51102
#        69007
#        100415
#        133395
#        161910
#        186407
#
# Disc length: 2717 seconds
#
# Revision: 0
# Processed by: cddbd v1.5.1PL0 Copyright (c) Steve Scherf et al.
# Submitted via: ExactAudioCopy v0.95a5
#
DISCID=760a9b08
DTITLE=CHET BAKER - CHET BAKER SINGS AGAIN
DYEAR=1985
DGENRE=Jazz
TTITLE0=ALL OF YOU
TTITLE1=BODY AND SOUL
TTITLE2=LOOK FOR THE SILVER LINING
TTITLE3=I CAN'T GET STARTED
TTITLE4=MY FUNNY VALENTINE
TTITLE5=ALONE TOGETHER
TTITLE6=SOMEONE TO WATCH OVER ME
TTITLE7=HOW DEEP IS THE OCEAN
EXTD=
EXTT0=
EXTT1=
EXTT2=
EXTT3=
EXTT4=
EXTT5=
EXTT6=
EXTT7=
PLAYORDER=
